<svg xmlns="http://www.w3.org/2000/svg" version="1.1" xmlns:xlink="http://www.w3.org/1999/xlink" xmlns:svgjs="http://svgjs.dev/svgjs" width="1600" height="900" preserveAspectRatio="none" viewBox="0 0 1600 900"><g mask="url(&quot;#SvgjsMask1008&quot;)" fill="none"><path d="M1653.333333333333 900L0 900 L0 496.89Q27.86 444.75, 80 472.6Q187.64 446.91, 213.33333333333334 554.55Q287.16 495.04, 346.6666666666667 568.87Q355.42 444.29, 480 453.05Q594.02 487.07, 560 601.08Q557.88 518.97, 640 516.85Q672.77 469.62, 720 502.39Q747.15 449.54, 800 476.7Q827.66 424.37, 880 452.03Q939.34 431.37, 960 490.7Q1061.46 458.83, 1093.3333333333333 560.29Q1154.76 488.38, 1226.6666666666665 549.81Q1252.75 495.89, 1306.6666666666665 521.97Q1366.66 448.63, 1439.9999999999998 508.62Q1534.15 469.44, 1573.333333333333 563.59Q1573.47 483.73, 1653.333333333333 483.87z" fill="#182f5d"></path><path d="M1626.6666666666665 900L0 900 L0 689.5Q46.6 602.76, 133.33333333333334 649.36Q168.05 604.08, 213.33333333333334 638.79Q266.36 558.48, 346.6666666666667 611.51Q436.07 567.58, 480 656.98Q488.51 585.5, 560 594.01Q586.27 540.28, 640 566.55Q727.53 520.75, 773.3333333333334 608.28Q859.06 560.67, 906.6666666666667 646.4Q968.54 628.27, 986.6666666666667 690.14Q1025.39 595.53, 1120 634.26Q1150.92 531.84, 1253.3333333333333 562.76Q1341.55 570.98, 1333.3333333333333 659.19Q1423.2 615.73, 1466.6666666666665 705.6Q1476.69 635.62, 1546.6666666666665 645.64Q1548 566.97, 1626.6666666666665 568.31z" fill="#25467d"></path><path d="M1680 900L0 900 L0 718.51Q75.73 660.91, 133.33333333333334 736.64Q212.18 682.15, 266.6666666666667 761Q313.96 674.96, 400 722.25Q454.95 643.86, 533.3333333333334 698.81Q619.35 651.49, 666.6666666666667 737.5Q775.96 713.46, 800.0000000000001 822.75Q802.77 692.18, 933.3333333333335 694.95Q967.48 649.1, 1013.3333333333335 683.24Q1073.16 663.07, 1093.3333333333335 722.89Q1179.96 676.18, 1226.6666666666667 762.81Q1272.05 728.19, 1306.6666666666667 773.58Q1360.09 747, 1386.6666666666667 800.43Q1465.01 745.44, 1520 823.79Q1554.51 778.3, 1600 812.81Q1625.85 758.66, 1680 784.51z" fill="#356cb1"></path><path d="M1680 900L0 900 L0 906.68Q-0.31 826.37, 80 826.05Q138.26 750.97, 213.33333333333334 809.23Q277.43 793.33, 293.33333333333337 857.42Q343.79 774.54, 426.66666666666674 825Q453.53 771.86, 506.66666666666674 798.72Q553.15 765.2, 586.6666666666667 811.68Q674.4 766.08, 720.0000000000001 853.81Q830.14 830.62, 853.3333333333335 940.76Q896.41 850.5, 986.6666666666669 893.58Q1014.48 788.06, 1120.0000000000002 815.88Q1148.14 764.02, 1200.0000000000002 792.16Q1296.96 755.78, 1333.3333333333335 852.74Q1385.49 771.56, 1466.6666666666667 823.72Q1533.5 810.56, 1546.6666666666667 877.39Q1574.76 772.15, 1680 800.24z" fill="white"></path></g><defs><mask id="SvgjsMask1008"><rect width="1600" height="900" fill="#ffffff"></rect></mask></defs></svg>