<svg xmlns="http://www.w3.org/2000/svg" version="1.1" xmlns:xlink="http://www.w3.org/1999/xlink" xmlns:svgjs="http://svgjs.dev/svgjs" width="1600" height="100" preserveAspectRatio="none" viewBox="0 0 1600 100"><g mask="url(&quot;#SvgjsMask1145&quot;)" fill="none"><path d="M -87.83202816828197,34 C 18.97,38.4 232.57,56 446.16797183171803,56 C 659.77,56 766.57,33.4 980.167971831718,34 C 1193.77,34.6 1300.57,56.2 1514.167971831718,59 C 1727.77,61.8 2031,48.2 2048.167971831718,48 C 2065.33,47.8 1689.63,56 1600,58" stroke="rgba(0, 32, 135, 0.58)" stroke-width="2"></path><path d="M -919.5782515843581,64 C -812.78,59.4 -599.18,41.8 -385.5782515843581,41 C -171.98,40.2 -65.18,60.4 148.4217484156419,60 C 362.02,59.6 468.82,39.2 682.4217484156419,39 C 896.02,38.8 1032.91,57.6 1216.421748415642,59 C 1399.94,60.4 1523.28,48.6 1600,46" stroke="rgba(0, 32, 135, 0.58)" stroke-width="2"></path></g><defs><mask id="SvgjsMask1145"><rect width="1600" height="100" fill="#ffffff"></rect></mask></defs></svg>