<svg xmlns="http://www.w3.org/2000/svg" version="1.1" xmlns:xlink="http://www.w3.org/1999/xlink" xmlns:svgjs="http://svgjs.dev/svgjs" width="1600" height="100" preserveAspectRatio="none" viewBox="0 0 1600 100"><g mask="url(&quot;#SvgjsMask1149&quot;)" fill="none"><path d="M -633.828976818073,40 C -527.03,43.2 -313.43,56 -99.82897681807295,56 C 113.77,56 220.57,41 434.17102318192707,40 C 647.77,39 754.57,52 968.171023181927,51 C 1181.77,50 1375.81,34 1502.171023181927,35 C 1628.54,36 1580.43,51.8 1600,56" stroke="rgba(0, 135, 73, 0.58)" stroke-width="2"></path><path d="M -843.5823035477307,35 C -736.78,39 -523.18,55 -309.5823035477307,55 C -95.98,55 10.82,35.6 224.4176964522693,35 C 438.02,34.4 544.82,49.4 758.4176964522693,52 C 972.02,54.6 1124.1,46.4 1292.4176964522694,48 C 1460.73,49.6 1538.48,57.6 1600,60" stroke="rgba(0, 135, 73, 0.58)" stroke-width="2"></path></g><defs><mask id="SvgjsMask1149"><rect width="1600" height="100" fill="#ffffff"></rect></mask></defs></svg>