<svg xmlns="http://www.w3.org/2000/svg" version="1.1" xmlns:xlink="http://www.w3.org/1999/xlink" xmlns:svgjs="http://svgjs.dev/svgjs" width="1600" height="100" preserveAspectRatio="none" viewBox="0 0 1600 100"><g mask="url(&quot;#SvgjsMask1150&quot;)" fill="none"><path d="M -897.9765805362113,67 C -791.18,60.6 -577.58,36 -363.9765805362112,35 C -150.38,34 -43.58,59.2 170.0234194637888,62 C 383.62,64.8 490.42,48.6 704.0234194637887,49 C 917.62,49.4 1058.83,67.2 1238.0234194637887,64 C 1417.22,60.8 1527.6,39.2 1600,33" stroke="rgba(126, 163, 0, 0.58)" stroke-width="2"></path><path d="M -236.26360531117678,60 C -129.46,57.8 84.14,48.6 297.7363946888232,49 C 511.34,49.4 618.14,62.4 831.7363946888232,62 C 1045.34,61.6 1152.14,48.8 1365.736394688823,47 C 1579.34,45.2 1852.88,54 1899.736394688823,53 C 1946.59,52 1659.95,44.2 1600,42" stroke="rgba(126, 163, 0, 0.58)" stroke-width="2"></path></g><defs><mask id="SvgjsMask1150"><rect width="1600" height="100" fill="#ffffff"></rect></mask></defs></svg>