<svg xmlns="http://www.w3.org/2000/svg" version="1.1" xmlns:xlink="http://www.w3.org/1999/xlink" xmlns:svgjs="http://svgjs.dev/svgjs" width="1600" height="100" preserveAspectRatio="none" viewBox="0 0 1600 100"><g mask="url(&quot;#SvgjsMask1151&quot;)" fill="none"><path d="M -472.43860451387195,48 C -365.64,51 -152.04,64.6 61.56139548612803,63 C 275.16,61.4 381.96,42.4 595.561395486128,40 C 809.16,37.6 915.96,49.6 1129.561395486128,51 C 1343.16,52.4 1569.47,43.8 1663.561395486128,47 C 1757.65,50.2 1612.71,63 1600,67" stroke="rgba(163, 78, 0, 0.58)" stroke-width="2"></path><path d="M -521.7123856546631,51 C -414.91,48.2 -201.31,33.8 12.28761434533687,37 C 225.89,40.2 332.69,67 546.2876143453369,67 C 759.89,67 866.69,38.2 1080.2876143453368,37 C 1293.89,35.8 1510.35,59.8 1614.2876143453368,61 C 1718.23,62.2 1602.86,46.6 1600,43" stroke="rgba(163, 78, 0, 0.58)" stroke-width="2"></path></g><defs><mask id="SvgjsMask1151"><rect width="1600" height="100" fill="#ffffff"></rect></mask></defs></svg>