<svg xmlns="http://www.w3.org/2000/svg" version="1.1" xmlns:xlink="http://www.w3.org/1999/xlink" xmlns:svgjs="http://svgjs.dev/svgjs" width="1600" height="100" preserveAspectRatio="none" viewBox="0 0 1600 100"><g mask="url(&quot;#SvgjsMask1153&quot;)" fill="none"><path d="M -858.3018213196017,64 C -751.5,58.8 -537.9,37.6 -324.30182131960163,38 C -110.7,38.4 -3.9,65.6 209.69817868039837,66 C 423.3,66.4 530.1,39.8 743.6981786803983,40 C 957.3,40.2 1106.44,68.2 1277.6981786803983,67 C 1448.96,65.8 1535.54,40.6 1600,34" stroke="rgba(161, 0, 0, 0.58)" stroke-width="2"></path><path d="M -755.953384076802,43 C -649.15,44.8 -435.55,53.2 -221.95338407680197,52 C -8.35,50.8 98.45,34.8 312.04661592319803,37 C 525.65,39.2 632.45,62 846.046615923198,63 C 1059.65,64 1229.26,42 1380.046615923198,42 C 1530.84,42 1556.01,58.8 1600,63" stroke="rgba(161, 0, 0, 0.58)" stroke-width="2"></path></g><defs><mask id="SvgjsMask1153"><rect width="1600" height="100" fill="#ffffff"></rect></mask></defs></svg>