<svg xmlns="http://www.w3.org/2000/svg" version="1.1" xmlns:xlink="http://www.w3.org/1999/xlink" xmlns:svgjs="http://svgjs.dev/svgjs" width="1600" height="100" preserveAspectRatio="none" viewBox="0 0 1600 100"><g mask="url(&quot;#SvgjsMask1152&quot;)" fill="none"><path d="M -433.60319618859467,54 C -326.8,51.6 -113.2,40.4 100.39680381140532,42 C 314,43.6 420.8,60.8 634.3968038114053,62 C 848,63.2 954.8,47.6 1168.3968038114053,48 C 1382,48.4 1616.08,66 1702.3968038114053,64 C 1788.72,62 1620.48,43.2 1600,38" stroke="rgba(159, 0, 163, 0.58)" stroke-width="2"></path><path d="M -244.0363199646825,33 C -137.24,36.8 76.36,51 289.9636800353175,52 C 503.56,53 610.36,36.8 823.9636800353176,38 C 1037.56,39.2 1144.36,58.2 1357.9636800353176,58 C 1571.56,57.8 1843.56,37 1891.9636800353176,37 C 1940.37,37 1658.39,53.8 1600,58" stroke="rgba(159, 0, 163, 0.58)" stroke-width="2"></path></g><defs><mask id="SvgjsMask1152"><rect width="1600" height="100" fill="#ffffff"></rect></mask></defs></svg>